<?xml version="1.0" standalone="no"?>
<!DOCTYPE svg PUBLIC "-//W3C//DTD SVG 20010904//EN"
 "http://www.w3.org/TR/2001/REC-SVG-20010904/DTD/svg10.dtd">
<svg version="1.0" xmlns="http://www.w3.org/2000/svg"
 width="512.000000pt" height="512.000000pt" viewBox="0 0 512.000000 512.000000"
 preserveAspectRatio="xMidYMid meet">

<g transform="translate(0.000000,512.000000) scale(0.100000,-0.100000)"
fill="#0032c6" stroke="none">
<path d="M3207 4412 c-25 -28 -25 -222 1 -244 27 -24 49 -28 82 -16 40 14 50
41 50 139 0 77 -10 115 -34 131 -22 15 -83 8 -99 -10z"/>
<path d="M2400 4160 c-13 -13 -20 -33 -20 -57 0 -32 9 -45 68 -105 55 -54 75
-68 99 -68 47 0 75 28 75 75 0 35 -7 46 -70 107 -77 75 -113 87 -152 48z"/>
<path d="M3973 4107 c-84 -84 -94 -119 -47 -156 46 -36 71 -28 151 52 82 82
91 110 48 152 -42 43 -70 34 -152 -48z"/>
<path d="M3076 3991 c-256 -71 -442 -263 -517 -531 -20 -69 -17 -272 4 -350
32 -116 91 -221 181 -319 55 -59 85 -101 90 -122 3 -17 6 -86 6 -153 0 -158
14 -201 89 -277 84 -84 115 -91 353 -87 192 3 193 3 247 33 59 33 101 78 133
145 19 39 23 67 28 206 l5 161 66 70 c167 178 224 324 217 553 -4 103 -10 139
-32 205 -72 211 -240 378 -455 452 -104 36 -310 43 -415 14z m328 -146 c194
-51 360 -217 411 -411 24 -91 20 -218 -10 -311 -31 -99 -69 -159 -160 -253
-40 -42 -78 -92 -86 -112 l-13 -38 -283 0 -282 0 -19 43 c-11 24 -46 70 -79
103 -203 200 -248 468 -117 702 71 127 214 238 355 276 72 19 211 20 283 1z
m135 -1358 c-4 -73 -8 -88 -32 -120 -47 -62 -67 -67 -244 -67 -145 0 -161 2
-197 23 -57 32 -76 75 -76 169 l0 78 276 0 276 0 -3 -83z"/>
<path d="M3375 3380 l-109 -109 -72 69 c-58 56 -78 70 -103 70 -43 0 -71 -31
-71 -77 0 -34 9 -46 103 -140 143 -143 130 -145 320 45 124 124 147 152 147
177 0 48 -25 75 -68 75 -34 0 -47 -9 -147 -110z"/>
<path d="M2110 3370 c-25 -25 -26 -71 -1 -101 18 -23 26 -24 126 -24 100 0
108 1 126 24 25 30 24 76 -1 101 -17 17 -33 20 -125 20 -92 0 -108 -3 -125
-20z"/>
<path d="M4168 3373 c-37 -42 -28 -101 19 -122 13 -6 61 -11 107 -11 104 0
136 19 136 79 0 61 -19 71 -142 71 -87 0 -107 -3 -120 -17z"/>
<path d="M745 2405 l-25 -24 0 -819 0 -819 23 -21 c23 -22 25 -22 470 -22 537
0 487 -15 487 150 l0 109 28 -4 c15 -3 149 -23 297 -45 149 -21 383 -56 520
-76 302 -44 431 -44 575 0 112 34 1230 516 1274 550 19 14 46 49 60 78 60 120
12 269 -106 329 -76 39 -105 36 -554 -50 -232 -45 -428 -81 -435 -81 -8 0 -23
19 -34 41 -10 23 -39 58 -63 79 -68 60 -110 70 -302 70 -238 0 -281 16 -378
145 -59 78 -119 128 -192 157 -52 21 -72 23 -372 26 l-318 3 0 104 c0 158 43
145 -492 145 l-439 0 -24 -25z m805 -840 l0 -715 -340 0 -340 0 0 715 0 715
340 0 340 0 0 -715z m805 434 c37 -18 66 -46 110 -104 68 -88 124 -135 205
-167 48 -19 81 -22 256 -27 221 -7 223 -7 264 -74 33 -54 -2 -145 -71 -179
-31 -16 -77 -18 -511 -18 l-477 0 -20 -26 c-28 -35 -26 -69 4 -99 l24 -25 479
0 c529 0 543 1 624 63 28 21 54 54 73 92 17 33 31 62 32 63 2 5 874 172 897
172 10 0 33 -15 52 -34 41 -41 45 -83 12 -120 -16 -18 -204 -103 -603 -275
-319 -137 -605 -257 -635 -266 -30 -9 -102 -19 -160 -22 -95 -5 -156 2 -625
71 -286 42 -535 78 -552 81 l-33 6 0 460 0 460 303 -3 c302 -3 302 -3 352 -29z"/>
</g>
</svg>
