<?xml version="1.0" standalone="no"?>
<!DOCTYPE svg PUBLIC "-//W3C//DTD SVG 20010904//EN"
 "http://www.w3.org/TR/2001/REC-SVG-20010904/DTD/svg10.dtd">
<svg version="1.0" xmlns="http://www.w3.org/2000/svg"
 width="512.000000pt" height="512.000000pt" viewBox="0 0 512.000000 512.000000"
 preserveAspectRatio="xMidYMid meet">

<g transform="translate(0.000000,512.000000) scale(0.100000,-0.100000)"
fill="#0032c6" stroke="none">
<path d="M1178 4857 c138 -138 252 -257 252 -262 0 -6 -41 -163 -92 -350 l-91
-340 -345 -94 -345 -93 -251 251 c-138 138 -255 251 -260 251 -15 0 1 -368 18
-440 62 -249 149 -404 330 -586 364 -363 649 -435 1051 -266 l70 30 242 -241
242 -241 -569 -575 -568 -576 -148 -85 -147 -85 -244 -368 c-133 -202 -243
-373 -243 -380 0 -7 69 -82 154 -166 l155 -154 347 229 c191 126 358 236 371
244 14 8 62 78 109 155 l84 140 580 580 580 580 239 -240 240 -240 -51 -150
c-47 -138 -51 -159 -56 -265 -3 -84 0 -133 12 -184 37 -155 147 -332 320 -513
174 -182 335 -277 576 -339 60 -15 457 -38 470 -27 2 2 -107 115 -244 252
l-248 248 93 345 94 345 340 91 c187 51 344 92 350 92 5 0 121 -111 258 -248
l248 -247 -6 165 c-8 207 -19 292 -56 405 -57 178 -143 316 -286 460 -233 232
-442 348 -653 362 -106 7 -205 -12 -367 -68 l-116 -41 -126 126 -126 126 847
847 c900 901 887 887 888 983 0 104 3 101 -343 447 -180 181 -337 330 -357
340 -53 25 -123 28 -178 8 -41 -15 -159 -129 -903 -873 l-857 -855 -135 132
-135 132 29 73 c64 166 82 243 83 371 1 100 -3 133 -22 195 -44 141 -131 280
-269 431 -180 197 -340 302 -554 363 -121 34 -218 46 -387 46 l-147 0 253
-253z m3449 -219 c262 -262 303 -307 303 -333 0 -26 -104 -134 -867 -897 -478
-478 -882 -875 -899 -883 -26 -12 -37 -12 -85 0 -30 8 -57 15 -60 15 -4 0 -30
-60 -59 -132 -64 -164 -73 -178 -108 -178 -22 0 -81 54 -329 302 -297 297
-317 321 -294 356 4 8 73 40 152 72 130 53 144 61 142 82 -1 13 -5 48 -8 78
l-7 55 884 883 c696 695 889 882 908 882 19 0 93 -68 327 -302z m-3078 211
c112 -53 189 -109 288 -210 116 -118 185 -209 237 -309 54 -107 70 -179 63
-285 -5 -78 -59 -275 -76 -275 -4 0 -20 14 -36 30 -16 17 -34 30 -40 30 -6 0
-35 -25 -65 -55 l-55 -56 245 -244 c196 -194 244 -247 239 -262 -4 -10 -8 -34
-8 -53 -1 -35 -2 -35 -99 -74 -107 -43 -134 -62 -164 -119 -48 -94 -30 -193
49 -278 l43 -46 -26 -24 -25 -24 -341 343 c-188 188 -344 342 -347 342 -10 0
-111 -104 -111 -114 0 -6 16 -26 35 -46 l35 -36 -103 -34 c-271 -91 -468 -29
-746 235 -141 135 -238 282 -285 435 -10 30 -20 62 -22 70 -3 8 57 -47 133
-123 l138 -137 440 119 439 118 120 443 119 442 -134 134 -134 134 55 -15 c30
-9 93 -34 139 -56z m854 -2437 l107 -107 -671 -670 -670 -670 -81 -134 -81
-133 -294 -194 c-162 -107 -297 -194 -301 -194 -4 0 -34 26 -65 58 l-58 59
197 299 197 299 139 80 139 80 661 668 c363 367 663 667 667 667 3 0 55 -48
114 -108z m1069 -289 l238 -238 60 60 60 59 -41 42 -41 42 98 32 c126 41 241
50 334 25 130 -34 279 -131 439 -288 123 -121 190 -219 244 -357 52 -136 50
-136 -87 -1 l-124 124 -442 -119 -443 -120 -118 -439 -119 -440 127 -127 c70
-71 122 -128 115 -128 -23 0 -137 42 -206 77 -102 50 -184 113 -280 214 -294
308 -349 512 -226 833 l11 29 40 -39 39 -38 63 62 62 62 -345 345 -345 345 22
21 22 22 56 -51 c80 -74 175 -93 260 -52 68 32 83 51 129 160 49 114 47 112
141 119 14 1 95 -74 257 -236z"/>
<path d="M3487 3952 l-697 -697 60 -60 60 -60 700 700 700 700 -57 57 c-32 32
-60 58 -63 58 -3 0 -319 -314 -703 -698z"/>
<path d="M4075 3878 c-242 -244 -555 -559 -695 -700 l-255 -258 55 -55 c30
-30 59 -55 65 -55 6 0 322 314 702 698 l692 699 -57 56 c-32 32 -60 57 -62 57
-3 0 -203 -199 -445 -442z"/>
</g>
</svg>
